<svg width="1224" height="385" viewBox="0 0 1224 385" fill="none" xmlns="http://www.w3.org/2000/svg">
<mask id="mask0_356_34" style="mask-type:alpha" maskUnits="userSpaceOnUse" x="0" y="0" width="341" height="341">
<path d="M170.5 0C264.665 0 341 76.3354 341 170.5C341 264.665 264.665 341 170.5 341C76.3354 341 0 264.665 0 170.5C0 76.3354 76.3354 0 170.5 0Z" fill="#D6CCC7"/>
<path d="M170.5 0C264.665 0 341 76.3354 341 170.5C341 264.665 264.665 341 170.5 341C76.3354 341 0 264.665 0 170.5C0 76.3354 76.3354 0 170.5 0Z" fill="#E06C36"/>
<path d="M170.5 0C264.665 0 341 76.3354 341 170.5C341 264.665 264.665 341 170.5 341C76.3354 341 0 264.665 0 170.5C0 76.3354 76.3354 0 170.5 0Z" fill="#F0D1C2"/>
<path d="M170.5 0C264.665 0 341 76.3354 341 170.5C341 264.665 264.665 341 170.5 341C76.3354 341 0 264.665 0 170.5C0 76.3354 76.3354 0 170.5 0Z" fill="#ED8251"/>
</mask>
<g mask="url(#mask0_356_34)">
<circle cx="170.5" cy="170.5" r="170.5" fill="#D6CCC7"/>
<circle cx="170.5" cy="170.5" r="170.5" fill="#E06C36"/>
<path d="M3.93945 341L140.439 -9.00002H201.439L336.939 341H269.439L194.439 142C192.773 138 190.439 131.667 187.439 123C184.773 114.333 181.773 105 178.439 95C175.106 84.6667 172.106 75.1667 169.439 66.5C166.773 57.5 164.773 51 163.439 47L175.939 46.5C173.939 53.1667 171.606 60.6667 168.939 69C166.273 77.3333 163.439 86 160.439 95C157.439 104 154.439 112.667 151.439 121C148.773 129.333 146.273 136.833 143.939 143.5L68.9395 341H3.93945ZM65.9395 261L88.4395 204.5H247.939L271.939 261H65.9395Z" fill="white"/>
<path d="M99.3203 261L120.777 204.5H218L239.285 261H99.3203Z" fill="#D6CCC7"/>
<path d="M99.3203 261L120.777 204.5H218L239.285 261H99.3203Z" fill="#E06C36"/>
<mask id="mask1_356_34" style="mask-type:alpha" maskUnits="userSpaceOnUse" x="0" y="217" width="341" height="141">
<rect y="217" width="341" height="141" fill="#D9D9D9"/>
</mask>
<g mask="url(#mask1_356_34)">
<circle cx="170.5" cy="187.5" r="153.5" stroke="#D6CCC7" stroke-width="34"/>
<circle cx="170.5" cy="187.5" r="153.5" stroke="#E06C36" stroke-width="34"/>
</g>
<path d="M228.5 389H109L169 227.5L228.5 389Z" fill="white"/>
</g>
<path d="M345.012 325L410.532 157H439.812L504.852 325H472.452L436.452 229.48C435.652 227.56 434.532 224.52 433.092 220.36C431.812 216.2 430.372 211.72 428.772 206.92C427.172 201.96 425.732 197.4 424.452 193.24C423.172 188.92 422.212 185.8 421.572 183.88L427.572 183.64C426.612 186.84 425.492 190.44 424.212 194.44C422.932 198.44 421.572 202.6 420.132 206.92C418.692 211.24 417.252 215.4 415.812 219.4C414.532 223.4 413.332 227 412.212 230.2L376.212 325H345.012ZM374.772 286.6L385.572 259.48H462.132L473.652 286.6H374.772ZM526.03 325V198.52H555.07L555.55 238.84L551.47 229.72C553.23 223.32 556.27 217.56 560.59 212.44C564.91 207.32 569.87 203.32 575.47 200.44C581.23 197.4 587.23 195.88 593.47 195.88C596.19 195.88 598.75 196.12 601.15 196.6C603.71 197.08 605.79 197.64 607.39 198.28L599.47 230.68C597.71 229.72 595.55 228.92 592.99 228.28C590.43 227.64 587.87 227.32 585.31 227.32C581.31 227.32 577.47 228.12 573.79 229.72C570.27 231.16 567.15 233.24 564.43 235.96C561.71 238.68 559.55 241.88 557.95 245.56C556.51 249.08 555.79 253.08 555.79 257.56V325H526.03ZM645.413 325V166.36H674.933V325H645.413ZM620.453 225.88V198.52H702.533V225.88H620.453ZM764.134 325L711.814 157H744.454L774.214 256.12C775.174 259.16 776.054 262.52 776.854 266.2C777.654 269.88 778.374 273.56 779.014 277.24C779.654 280.76 780.214 284.04 780.694 287.08C781.174 290.12 781.654 292.68 782.134 294.76L775.654 294.52C777.574 287 779.094 280.92 780.214 276.28C781.334 271.64 782.294 267.8 783.094 264.76C784.054 261.56 785.014 258.6 785.974 255.88L814.294 183.4H840.934L868.534 255.88C870.134 260.36 871.574 264.68 872.854 268.84C874.134 272.84 875.174 276.84 875.974 280.84C876.934 284.68 877.814 288.68 878.614 292.84L872.854 294.04C873.494 290.2 873.974 287.08 874.294 284.68C874.614 282.28 874.934 280.12 875.254 278.2C875.574 276.28 875.894 274.44 876.214 272.68C876.534 270.76 877.014 268.52 877.654 265.96C878.454 263.24 879.414 259.8 880.534 255.64L910.054 157H942.454L889.894 325H867.334L824.614 222.76L827.494 223.72L786.934 325H764.134ZM1005.51 327.4C995.109 327.4 985.669 324.52 977.189 318.76C968.709 313 961.909 305.16 956.789 295.24C951.669 285.32 949.109 274.04 949.109 261.4C949.109 248.76 951.669 237.48 956.789 227.56C961.909 217.64 968.869 209.88 977.669 204.28C986.469 198.68 996.389 195.88 1007.43 195.88C1013.83 195.88 1019.67 196.84 1024.95 198.76C1030.23 200.52 1034.87 203.08 1038.87 206.44C1042.87 209.8 1046.15 213.64 1048.71 217.96C1051.43 222.28 1053.27 226.92 1054.23 231.88L1047.75 230.2V198.52H1077.51V325H1047.51V294.76L1054.47 293.56C1053.35 297.88 1051.27 302.12 1048.23 306.28C1045.35 310.28 1041.67 313.88 1037.19 317.08C1032.87 320.12 1027.99 322.6 1022.55 324.52C1017.27 326.44 1011.59 327.4 1005.51 327.4ZM1013.67 301.24C1020.55 301.24 1026.63 299.56 1031.91 296.2C1037.19 292.84 1041.27 288.2 1044.15 282.28C1047.19 276.2 1048.71 269.24 1048.71 261.4C1048.71 253.72 1047.19 246.92 1044.15 241C1041.27 235.08 1037.19 230.44 1031.91 227.08C1026.63 223.72 1020.55 222.04 1013.67 222.04C1006.79 222.04 1000.71 223.72 995.429 227.08C990.309 230.44 986.309 235.08 983.429 241C980.549 246.92 979.109 253.72 979.109 261.4C979.109 269.24 980.549 276.2 983.429 282.28C986.309 288.2 990.309 292.84 995.429 296.2C1000.71 299.56 1006.79 301.24 1013.67 301.24ZM1111.97 325V147.4H1141.73V325H1111.97ZM1176.66 325V147.4H1206.42V325H1176.66Z" fill="#E06C36"/>
</svg>
