<svg width="341" height="341" viewBox="0 0 341 341" fill="none" xmlns="http://www.w3.org/2000/svg">
<mask id="mask0_320_36" style="mask-type:alpha" maskUnits="userSpaceOnUse" x="0" y="0" width="341" height="341">
<path d="M170.5 0C264.665 0 341 76.3354 341 170.5C341 264.665 264.665 341 170.5 341C76.3354 341 0 264.665 0 170.5C0 76.3354 76.3354 0 170.5 0Z" fill="#D6CCC7"/>
<path d="M170.5 0C264.665 0 341 76.3354 341 170.5C341 264.665 264.665 341 170.5 341C76.3354 341 0 264.665 0 170.5C0 76.3354 76.3354 0 170.5 0Z" fill="#E06C36"/>
<path d="M170.5 0C264.665 0 341 76.3354 341 170.5C341 264.665 264.665 341 170.5 341C76.3354 341 0 264.665 0 170.5C0 76.3354 76.3354 0 170.5 0Z" fill="#F0D1C2"/>
<path d="M170.5 0C264.665 0 341 76.3354 341 170.5C341 264.665 264.665 341 170.5 341C76.3354 341 0 264.665 0 170.5C0 76.3354 76.3354 0 170.5 0Z" fill="#ED8251"/>
</mask>
<g mask="url(#mask0_320_36)">
<circle cx="170.5" cy="170.5" r="170.5" fill="#D6CCC7"/>
<circle cx="170.5" cy="170.5" r="170.5" fill="#E06C36"/>
<path d="M3.93945 341L140.439 -9.00002H201.439L336.939 341H269.439L194.439 142C192.773 138 190.439 131.667 187.439 123C184.773 114.333 181.773 105 178.439 95C175.106 84.6667 172.106 75.1667 169.439 66.5C166.773 57.5 164.773 51 163.439 47L175.939 46.5C173.939 53.1667 171.606 60.6667 168.939 69C166.273 77.3333 163.439 86 160.439 95C157.439 104 154.439 112.667 151.439 121C148.773 129.333 146.273 136.833 143.939 143.5L68.9395 341H3.93945ZM65.9395 261L88.4395 204.5H247.939L271.939 261H65.9395Z" fill="white"/>
<path d="M99.3203 261L120.777 204.5H218L239.285 261H99.3203Z" fill="#D6CCC7"/>
<path d="M99.3203 261L120.777 204.5H218L239.285 261H99.3203Z" fill="#E06C36"/>
<mask id="mask1_320_36" style="mask-type:alpha" maskUnits="userSpaceOnUse" x="0" y="217" width="341" height="141">
<rect y="217" width="341" height="141" fill="#D9D9D9"/>
</mask>
<g mask="url(#mask1_320_36)">
<circle cx="170.5" cy="187.5" r="153.5" stroke="#D6CCC7" stroke-width="34"/>
<circle cx="170.5" cy="187.5" r="153.5" stroke="#E06C36" stroke-width="34"/>
</g>
<path d="M228.5 389H109L169 227.5L228.5 389Z" fill="white"/>
</g>
</svg>
